<svg xmlns="http://www.w3.org/2000/svg" xmlns:xlink="http://www.w3.org/1999/xlink" width="257" height="257" viewBox="0 0 257 257">
  <defs>
    <circle id="logo-a" cx="128.5" cy="128.5" r="125"/>
  </defs>
  <g fill="none" fill-rule="evenodd">
    <circle cx="128" cy="128" r="125" fill="#FFF" transform="translate(.5 .5)"/>
    <mask id="logo-b" fill="#fff">
      <use xlink:href="#logo-a"/>
    </mask>
    <path fill="#C73A63" d="M121.982127,112.595094 C113.374834,127.076768 105.128384,141.100974 96.7103332,155.01924 C94.5484866,158.592306 93.4787896,161.502445 95.2060216,166.045023 C99.9739517,178.59249 93.2478505,190.802875 80.6055385,194.117512 C68.6833075,197.244347 57.0673915,189.401578 54.7018695,176.62618 C52.6057764,165.31789 61.3734435,154.232716 73.8297212,152.465444 C74.8737584,152.316165 75.9386442,152.298508 77.6931399,152.166886 C83.7969886,141.922811 90.0499854,131.429938 96.6413722,120.365631 C84.7239524,108.505169 77.6305939,94.6398728 79.200659,77.4599397 C80.3104497,65.3153659 85.0815873,54.8208875 93.8027458,46.2188823 C110.505737,29.7468209 135.987621,27.0790596 155.654331,39.7228355 C174.543225,51.8674093 183.193818,75.5241274 175.819805,95.7715044 C170.259625,94.2626623 164.660956,92.7409789 158.505787,91.0700166 C160.821593,79.8130913 159.108795,69.7038492 151.523087,61.0440586 C146.511388,55.3265101 140.080375,52.3296928 132.767304,51.2253488 C118.107482,49.008635 103.713882,58.4356879 99.4431125,72.8371043 C94.5949952,89.1823588 101.932123,102.534006 121.982127,112.595094 Z" mask="url(#logo-b)"/>
    <path fill="#4B4B4B" d="M147.269498,95.8660528 C153.333253,106.572411 159.490025,117.44089 165.59227,128.209849 C196.43547,118.6592 219.689754,135.747639 228.032429,154.043152 C238.108751,176.142874 231.220672,202.318074 211.430474,215.952228 C191.117455,229.949146 165.428688,227.557471 147.431476,209.578173 C152.018183,205.735441 156.627342,201.875052 161.552439,197.751419 C179.328335,209.274799 194.875027,208.732258 206.417171,195.086868 C216.259346,183.446311 216.046048,166.089812 205.918406,154.693238 C194.230322,141.542235 178.574576,141.140947 159.650399,153.765461 C151.800074,139.826328 143.81343,125.997951 136.211685,111.957693 C133.648902,107.225708 130.818294,104.480899 125.041609,103.479285 C115.393487,101.805112 109.164546,93.5129011 108.790874,84.2222861 C108.423617,75.0344007 113.831441,66.7293485 122.284774,63.4933638 C130.65792,60.2878769 140.484058,62.8753806 146.116406,70.0006466 C150.71915,75.82253 152.181765,82.3747571 149.760112,89.5545983 C149.086539,91.5562218 148.214103,93.4936393 147.269498,95.8660528 Z" mask="url(#logo-b)"/>
    <path fill="#4A4A4A" d="M161.35026,184.084162 L124.220385,184.084162 C120.661677,198.734377 112.974934,210.562736 99.7296141,218.084474 C89.4335793,223.930435 78.3356726,225.912797 66.5240999,224.004272 C44.7773347,220.493806 26.995024,200.899726 25.4297701,178.835318 C23.6576333,153.841509 40.8225026,131.624611 63.7015109,126.634196 C65.2811985,132.375822 66.8769235,138.172023 68.4566111,143.899202 C47.4652092,154.618402 40.20025,168.124144 46.0747634,185.011939 C51.2468369,199.874034 65.9371297,208.020176 81.8879649,204.869265 C98.1771902,201.652542 106.389962,188.103461 105.387622,166.358478 C120.830071,166.358478 136.285349,166.197962 151.729401,166.43713 C157.759478,166.531834 162.415146,165.905825 166.958552,160.584749 C174.438413,151.828649 188.204949,152.618383 196.260554,160.888122 C204.492571,169.339243 204.09805,182.938084 195.386514,191.032861 C186.981293,198.843527 173.702294,198.426188 165.839139,190.01038 C164.222565,188.275212 162.949193,186.215803 161.35026,184.084162 Z" mask="url(#logo-b)"/>
  </g>
</svg>
