<svg xmlns="http://www.w3.org/2000/svg" xmlns:xlink="http://www.w3.org/1999/xlink" width="257" height="257" viewBox="0 0 257 257"><defs><circle id="logo-a" cx="128.5" cy="128.5" r="124.5"/></defs><g fill="none" fill-rule="evenodd"><circle cx="128" cy="128" r="125" fill="#FFF" transform="translate(.5 .5)"/><mask id="logo-b" fill="#fff"><use xlink:href="#logo-a"/></mask><use fill="#C73A63" xlink:href="#logo-a"/><g mask="url(#logo-b)"><g><path fill="#FFF" d="M72.7365954,61.4066171 C66.2811258,72.3051964 60.0962881,82.8594957 53.7827499,93.3340669 C52.161365,96.0230757 51.3590922,98.2131804 52.6545162,101.631821 C56.2304638,111.07476 51.1858878,120.264019 41.7041539,122.75854 C32.7624806,125.111725 24.0505437,119.209435 22.2764021,109.59496 C20.7043323,101.084597 27.2800826,92.7421467 36.6222909,91.4121383 C37.4053188,91.2997943 38.2039832,91.2865063 39.5198549,91.1874502 C44.0977414,83.4779919 48.7874891,75.5812934 53.7310292,67.2545469 C44.7929643,58.3286321 39.4729454,47.8939249 40.6504942,34.9646969 C41.4828372,25.8249661 45.0611905,17.9270596 51.6020593,11.4533856 C64.1293027,-0.943114194 83.240716,-2.95081081 97.9907481,6.56460812 C112.157418,15.7043389 118.645364,33.5078484 113.114854,48.7455651 C108.944719,47.6100448 104.745717,46.4648604 100.12934,45.2073321 C101.866195,36.7356254 100.581596,29.1276391 94.8923152,22.6104771 C91.1335408,18.3075797 86.3102815,16.0522431 80.8254779,15.2211388 C69.8306117,13.5528903 59.0354116,20.6474765 55.8323344,31.4856558 C52.1962464,43.7867236 57.6990921,53.8348707 72.7365954,61.4066171 Z" transform="translate(51 49)"/><path fill="#4B4B4B" d="M91.7021233,48.8167201 C96.2499396,56.8740826 100.867519,65.0534531 105.444202,73.1579276 C128.576602,65.9703254 146.017316,78.8306974 152.274322,92.5994856 C159.831563,109.231235 154.665504,128.930097 139.822855,139.190852 C124.588092,149.724615 105.321516,147.924695 91.8236069,134.393883 C95.2636372,131.50193 98.7205068,128.596689 102.41433,125.493336 C115.746251,134.16557 127.40627,133.757266 136.062878,123.488055 C143.44451,114.727636 143.284536,101.665528 135.688805,93.0887258 C126.922742,83.1915787 115.180932,82.8895786 100.9878,92.3905016 C95.1000553,81.9002263 89.1100724,71.4933031 83.4087634,60.9269239 C81.4866765,57.3657388 79.3637208,55.3000581 75.031207,54.5462659 C67.7951152,53.2863215 63.1234097,47.0457916 62.8431555,40.0538854 C62.5677125,33.1392913 66.6235804,26.8890974 72.9635804,24.4537686 C79.24344,22.0413919 86.6130434,23.9886885 90.8373045,29.3510021 C94.2893629,33.7324195 95.3863236,38.663477 93.5700838,44.0668627 C93.0649045,45.5732391 92.4105771,47.0312956 91.7021233,48.8167201 Z" style="mix-blend-mode:multiply" transform="translate(51 49)"/><path fill="#4A4A4A" d="M102.262695,115.207668 L74.4152886,115.207668 C71.7462581,126.233088 65.9812003,135.134842 56.0472106,140.795532 C48.3251845,145.19507 40.0017544,146.68695 31.1430749,145.250638 C14.833001,142.608741 1.49626801,127.86268 0.322327592,111.257507 C-1.00677504,92.4477333 11.8668769,75.7278001 29.0261332,71.972127 C30.2108988,76.2931443 31.4076926,80.6552336 32.5924583,84.965379 C16.8489069,93.0324055 11.4001875,103.196521 15.8060725,115.905893 C19.6851277,127.090768 30.7028472,133.22137 42.6659737,130.850065 C54.8828926,128.429232 61.0424714,118.232501 60.2907165,101.86772 C71.8725529,101.86772 83.4640118,101.74692 95.047051,101.926912 C99.5696084,101.998184 103.061359,101.527064 106.468914,97.5225428 C112.07881,90.9329008 122.403712,91.527237 128.445415,97.7508549 C134.619428,104.110977 134.323537,114.345156 127.789885,120.437102 C121.485969,126.315232 111.526721,126.001152 105.629354,119.667606 C104.416924,118.361757 103.461894,116.811893 102.262695,115.207668 Z" style="mix-blend-mode:multiply" transform="translate(51 49)"/></g></g></g></svg>