<svg height="257" viewBox="0 0 257 257" width="257" xmlns="http://www.w3.org/2000/svg"><g fill="none" fill-rule="evenodd"><path d="m0 0h257v257h-257z" fill="#c73a63"/><path d="m123.736595 110.406617c-6.455469 10.898579-12.640307 21.452879-18.953845 31.92745-1.621385 2.689009-2.423658 4.879113-1.128234 8.297754 3.575948 9.442939-1.468628 18.632198-10.9503621 21.126719-8.9416733 2.353185-17.6536102-3.549105-19.4277518-13.16358-1.5720698-8.510363 5.0036805-16.852813 14.3458888-18.182822.7830279-.112344 1.5816923-.125632 2.897564-.224688 4.5778865-7.709458 9.2676342-15.606157 14.2111741-23.932903-8.9380647-8.925915-14.2580836-19.3606221-13.0805348-32.2898501.832343-9.1397308 4.4106963-17.0376373 10.9515648-23.5113113 12.527244-12.3964998 31.638657-14.4041964 46.388689-4.8887775 14.16667 9.1397308 20.654616 26.9432403 15.124106 42.180957-4.170135-1.1355203-8.369137-2.2807047-12.985514-3.538233 1.736855-8.4717067.452256-16.079693-5.237025-22.596855-3.758774-4.3028974-8.582034-6.558234-14.066837-7.3893383-10.994866-1.6682485-21.790066 5.4263377-24.993144 16.264517-3.636088 12.3010678 1.866758 22.3492152 16.904261 29.9209612z" fill="#fff"/><path d="m142.702123 97.8167201c4.547817 8.0573629 9.165396 16.2367329 13.742079 24.3412079 23.1324-7.187603 40.573114 5.672769 46.83012 19.441558 7.557241 16.631749 2.391182 36.330611-12.451467 46.591366-15.234763 10.533763-34.501339 8.733843-47.999248-4.796969 3.44003-2.891953 6.8969-5.797194 10.590723-8.900547 13.331921 8.672234 24.99194 8.26393 33.648548-2.005281 7.381632-8.760419 7.221658-21.822527-.374073-30.399329-8.766063-9.897147-20.507873-10.199147-34.701005-.698224-5.887745-10.490276-11.877728-20.897199-17.579037-31.463578-1.922086-3.561185-4.045042-5.626866-8.377556-6.380658-7.236092-1.259944-11.907797-7.5004744-12.188052-14.4923806-.275442-6.9145941 3.780425-13.164788 10.120425-15.6001168 6.27986-2.4123767 13.649463-.4650801 17.873724 4.8972335 3.452059 4.3814174 4.54902 9.3124749 2.73278 14.7158606-.505179 1.5063764-1.159507 2.9644329-1.867961 4.7498574z" fill="#4b4b4b"/><path d="m153.262695 164.207668h-27.847406c-2.669031 11.02542-8.434089 19.927174-18.368078 25.587864-7.7220265 4.399538-16.0454566 5.891418-24.9041361 4.455106-16.3100739-2.641897-29.6468069-17.387958-30.8207473-33.993131-1.3291026-18.809774 11.5445493-35.529707 28.7038056-39.28538 1.1847656 4.321017 2.3815594 8.683107 3.5663251 12.993252-15.7435514 8.067026-21.1922708 18.231142-16.7863858 30.940514 3.8790552 11.184875 14.8967747 17.315477 26.8599012 14.944172 12.2169193-2.420833 18.3764973-12.617564 17.6247433-28.982345 11.581836 0 23.173295-.1208 34.756334.059192 4.522557.071272 8.014308-.399848 11.421863-4.404369 5.609896-6.589642 15.934798-5.995306 21.976501.228312 6.174013 6.360122 5.878122 16.594301-.65553 22.686247-6.303916 5.87813-16.263164 5.56405-22.160531-.769496-1.21243-1.305849-2.16746-2.855713-3.366659-4.459938z" fill="#4a4a4a"/></g></svg>