<?xml version="1.0" encoding="UTF-8"?>
<svg width="257px" height="257px" viewBox="0 0 257 257" version="1.1" xmlns="http://www.w3.org/2000/svg" xmlns:xlink="http://www.w3.org/1999/xlink">
    <!-- Generator: Sketch 52.6 (67491) - http://www.bohemiancoding.com/sketch -->
    <title>webhooks/logo</title>
    <desc>Created with Sketch.</desc>
    <g id="webhooks/logo" stroke="none" stroke-width="1" fill="none" fill-rule="evenodd">
        <rect fill="#C73A63" x="0" y="0" width="257" height="257"></rect>
        <path d="M123.736595,110.406617 C117.281126,121.305196 111.096288,131.859496 104.78275,142.334067 C103.161365,145.023076 102.359092,147.21318 103.654516,150.631821 C107.230464,160.07476 102.185888,169.264019 92.7041539,171.75854 C83.7624806,174.111725 75.0505437,168.209435 73.2764021,158.59496 C71.7043323,150.084597 78.2800826,141.742147 87.6222909,140.412138 C88.4053188,140.299794 89.2039832,140.286506 90.5198549,140.18745 C95.0977414,132.477992 99.7874891,124.581293 104.731029,116.254547 C95.7929643,107.328632 90.4729454,96.8939249 91.6504942,83.9646969 C92.4828372,74.8249661 96.0611905,66.9270596 102.602059,60.4533856 C115.129303,48.0568858 134.240716,46.0491892 148.990748,55.5646081 C163.157418,64.7043389 169.645364,82.5078484 164.114854,97.7455651 C159.944719,96.6100448 155.745717,95.4648604 151.12934,94.2073321 C152.866195,85.7356254 151.581596,78.1276391 145.892315,71.6104771 C142.133541,67.3075797 137.310281,65.0522431 131.825478,64.2211388 C120.830612,62.5528903 110.035412,69.6474765 106.832334,80.4856558 C103.196246,92.7867236 108.699092,102.834871 123.736595,110.406617 Z" id="Shape" fill="#FFFFFF"></path>
        <path d="M142.702123,97.8167201 C147.24994,105.874083 151.867519,114.053453 156.444202,122.157928 C179.576602,114.970325 197.017316,127.830697 203.274322,141.599486 C210.831563,158.231235 205.665504,177.930097 190.822855,188.190852 C175.588092,198.724615 156.321516,196.924695 142.823607,183.393883 C146.263637,180.50193 149.720507,177.596689 153.41433,174.493336 C166.746251,183.16557 178.40627,182.757266 187.062878,172.488055 C194.44451,163.727636 194.284536,150.665528 186.688805,142.088726 C177.922742,132.191579 166.180932,131.889579 151.9878,141.390502 C146.100055,130.900226 140.110072,120.493303 134.408763,109.926924 C132.486677,106.365739 130.363721,104.300058 126.031207,103.546266 C118.795115,102.286322 114.12341,96.0457916 113.843155,89.0538854 C113.567713,82.1392913 117.62358,75.8890974 123.96358,73.4537686 C130.24344,71.0413919 137.613043,72.9886885 141.837304,78.3510021 C145.289363,82.7324195 146.386324,87.663477 144.570084,93.0668627 C144.064905,94.5732391 143.410577,96.0312956 142.702123,97.8167201 Z" id="Shape" fill="#4B4B4B" style="mix-blend-mode: multiply;"></path>
        <path d="M153.262695,164.207668 L125.415289,164.207668 C122.746258,175.233088 116.9812,184.134842 107.047211,189.795532 C99.3251845,194.19507 91.0017544,195.68695 82.1430749,194.250638 C65.833001,191.608741 52.496268,176.86268 51.3223276,160.257507 C49.993225,141.447733 62.8668769,124.7278 80.0261332,120.972127 C81.2108988,125.293144 82.4076926,129.655234 83.5924583,133.965379 C67.8489069,142.032405 62.4001875,152.196521 66.8060725,164.905893 C70.6851277,176.090768 81.7028472,182.22137 93.6659737,179.850065 C105.882893,177.429232 112.042471,167.232501 111.290717,150.86772 C122.872553,150.86772 134.464012,150.74692 146.047051,150.926912 C150.569608,150.998184 154.061359,150.527064 157.468914,146.522543 C163.07881,139.932901 173.403712,140.527237 179.445415,146.750855 C185.619428,153.110977 185.323537,163.345156 178.789885,169.437102 C172.485969,175.315232 162.526721,175.001152 156.629354,168.667606 C155.416924,167.361757 154.461894,165.811893 153.262695,164.207668 Z" id="Shape" fill="#4A4A4A" style="mix-blend-mode: multiply;"></path>
    </g>
</svg>